<svg width="245" height="59" viewBox="0 0 245 59" fill="none" xmlns="http://www.w3.org/2000/svg">
<path d="M53.2795 37.1729C51.3846 43.1044 47.4714 48.1583 42.24 51.4303C37.0086 54.7024 30.8004 55.979 24.7262 55.0318C18.6519 54.0846 13.1081 50.9754 9.08649 46.2605C5.06492 41.5457 2.82807 35.5328 2.77616 29.2977C2.72425 23.0626 4.86066 17.0122 8.80316 12.2291C12.7457 7.44593 18.237 4.24217 24.2945 3.191C30.3521 2.13984 36.5807 3.30987 41.8659 6.49175C47.151 9.67363 51.1478 14.6597 53.1412 20.5579H56.0599C54.0429 13.88 49.7242 8.16174 43.8935 4.44886C38.0629 0.735989 31.1098 -0.723437 24.3057 0.337457C17.5017 1.39835 11.3013 4.90867 6.83847 10.2265C2.37561 15.5444 -0.0515477 22.3144 0.000830356 29.2987C0.0532084 36.283 2.58162 43.0147 7.12372 48.2631C11.6658 53.5114 17.9181 56.9256 24.7373 57.8813C31.5564 58.837 38.4868 57.2704 44.2612 53.468C50.0355 49.6655 54.2679 43.8813 56.1845 37.1729H53.2795Z" fill="#18283B"/>
<path d="M65.7873 16.6227L72.6638 34.3006L79.6975 15.3574L86.4958 34.307L93.6067 16.6291H97.9055L86.2614 44.7701L79.4578 26.0188L72.5814 44.768L61.4885 16.6227H65.7873Z" fill="#18283B"/>
<path d="M107.124 16.6227C109.122 16.5202 111.105 17.0165 112.826 18.0498C113.846 18.7679 114.676 19.7303 115.242 20.8517C115.807 21.973 116.092 23.2186 116.069 24.4781C116.094 25.573 115.879 26.6598 115.44 27.6602C115.001 28.6606 114.348 29.5498 113.53 30.2636C111.727 31.7189 109.46 32.4528 107.16 32.326H105.365V43.0656H101.38V16.6227H107.124ZM105.366 28.5954H107.161C110.6 28.5954 112.241 26.8909 112.241 24.4331C112.241 22.9664 111.655 20.349 107.122 20.349H105.364L105.366 28.5954Z" fill="#18283B"/>
<path d="M132.207 21.8564C131.834 21.0992 131.316 20.4253 130.683 19.8744C129.835 19.2448 128.802 18.9233 127.752 18.9616C125.175 18.9616 123.376 20.5879 123.376 23.0457C123.35 23.4798 123.425 23.9141 123.594 24.3135C123.764 24.7129 124.024 25.0662 124.353 25.3449C125.153 26.0698 126.081 26.6347 127.088 27.0098L129.589 28.1198C131.073 28.6887 132.438 29.5359 133.614 30.6172C134.239 31.2395 134.729 31.9879 135.052 32.814C135.375 33.6401 135.524 34.5257 135.489 35.4137C135.489 40.2907 131.934 43.5413 127.244 43.5413C126.207 43.5862 125.171 43.4197 124.198 43.0517C123.225 42.6836 122.334 42.1215 121.579 41.3985C120.356 40.1004 119.516 38.4795 119.157 36.7208L121.97 35.928C122.14 37.1861 122.686 38.3614 123.533 39.2964C124.28 40.0095 125.215 40.4887 126.224 40.6766C127.234 40.8645 128.275 40.7531 129.223 40.3558C130.172 39.9584 130.987 39.292 131.572 38.4364C132.157 37.5807 132.486 36.5722 132.52 35.5316C132.543 34.9515 132.439 34.3735 132.216 33.8389C131.993 33.3042 131.657 32.8261 131.231 32.4385C130.29 31.6668 129.235 31.052 128.104 30.6172L125.76 29.5072C124.482 28.996 123.304 28.2577 122.282 27.3269C121.687 26.7858 121.218 26.1178 120.907 25.3707C120.597 24.6236 120.454 23.8161 120.487 23.006C120.487 18.9219 123.574 16.1867 127.793 16.1867C129.276 16.1285 130.739 16.5445 131.975 17.3759C133.047 18.1265 133.92 19.1346 134.515 20.3104L132.207 21.8564Z" fill="#18283B"/>
<path d="M143.184 29.2297V43.0656H140.371V29.2297H138.652V26.6134H140.371V20.6672H143.184V26.6134H145.998V29.2297H143.184Z" fill="#18283B"/>
<path d="M161.275 26.6134H164.088V43.0656H161.275V40.7664C160.63 41.6385 159.791 42.3442 158.827 42.8263C157.863 43.3084 156.8 43.5533 155.726 43.5413C151.623 43.5413 147.833 40.6078 147.833 34.8202C147.833 29.1504 151.584 26.217 155.726 26.217C156.799 26.1892 157.863 26.4231 158.829 26.899C159.794 27.375 160.633 28.0791 161.275 28.9522V26.6134ZM150.725 34.8202C150.725 38.3483 152.678 41.0042 156.038 41.0042C159.478 41.0042 161.43 38.1115 161.43 34.8598C161.43 30.6172 158.539 28.7529 156.038 28.7529C153.27 28.7497 150.725 30.8154 150.725 34.8202Z" fill="#18283B"/>
<path d="M172.488 29.2297V43.0656H169.675V29.2297H167.956V26.6134H169.675V20.6672H172.488V26.6134H175.302V29.2297H172.488Z" fill="#18283B"/>
<path d="M179.563 18.3669C179.957 18.3667 180.343 18.4852 180.671 18.7073C180.999 18.9294 181.255 19.2453 181.406 19.6149C181.557 19.9845 181.596 20.3912 181.52 20.7837C181.443 21.1761 181.253 21.5366 180.974 21.8196C180.695 22.1026 180.34 22.2954 179.953 22.3735C179.567 22.4517 179.166 22.4117 178.801 22.2586C178.437 22.1055 178.126 21.8463 177.906 21.5136C177.687 21.1809 177.57 20.7898 177.57 20.3897C177.572 19.854 177.783 19.3408 178.156 18.9619C178.529 18.5831 179.035 18.3692 179.563 18.3669ZM180.971 26.6166V43.0656H178.157V26.6134L180.971 26.6166Z" fill="#18283B"/>
<path d="M193.154 30.4189C192.985 29.9429 192.678 29.5295 192.274 29.2326C191.87 28.9357 191.387 28.769 190.888 28.754C190.636 28.7312 190.382 28.7629 190.143 28.8468C189.903 28.9308 189.684 29.0651 189.5 29.2411C189.315 29.4171 189.169 29.6306 189.072 29.8678C188.975 30.105 188.928 30.3603 188.935 30.6171C188.935 31.8064 189.716 32.1632 191.552 32.956C193.898 33.947 194.992 34.7002 195.617 35.4941C196.218 36.2409 196.524 37.1873 196.476 38.15C196.476 41.5988 194.014 43.5413 190.888 43.5413C189.621 43.5653 188.381 43.1674 187.358 42.4086C186.335 41.6497 185.585 40.5716 185.223 39.3393L187.645 38.3086C187.852 39.0461 188.279 39.7009 188.866 40.1834C189.453 40.6658 190.173 40.9525 190.927 41.0042C191.275 41.024 191.622 40.9705 191.948 40.8471C192.275 40.7237 192.572 40.5331 192.822 40.2872C193.071 40.0414 193.268 39.7457 193.4 39.4188C193.531 39.0919 193.594 38.7408 193.585 38.3879C193.585 36.8408 192.491 36.3266 190.966 35.6516C189.491 35.1506 188.144 34.3248 187.02 33.2335C186.491 32.5461 186.228 31.6859 186.281 30.8153C186.254 30.1871 186.36 29.5603 186.59 28.9766C186.821 28.393 187.172 27.8661 187.619 27.4309C188.067 26.9957 188.601 26.6623 189.185 26.453C189.769 26.2437 190.391 26.1632 191.009 26.217C191.961 26.1932 192.898 26.4652 193.694 26.9965C194.49 27.5278 195.107 28.2932 195.463 29.1901L193.154 30.4189Z" fill="#18283B"/>
<path d="M203.313 29.2297V43.0656H200.5V29.2297H198.781V26.6134H200.501V20.6672H203.314V26.6134H206.128V29.2297H203.313Z" fill="#18283B"/>
<path d="M210.385 18.3669C210.779 18.3669 211.164 18.4855 211.492 18.7076C211.82 18.9297 212.075 19.2455 212.226 19.6149C212.377 19.9843 212.417 20.3909 212.34 20.7831C212.263 21.1754 212.074 21.5359 211.795 21.8189C211.517 22.1019 211.162 22.2948 210.775 22.3732C210.389 22.4516 209.988 22.412 209.624 22.2594C209.259 22.1068 208.948 21.8481 208.728 21.5158C208.509 21.1836 208.391 20.7928 208.391 20.3929C208.393 19.8569 208.604 19.3436 208.977 18.9643C209.351 18.5849 209.856 18.3703 210.385 18.3669ZM211.791 26.6166V43.0656H208.978V26.6134L211.791 26.6166Z" fill="#18283B"/>
<path d="M229.998 31.2139C229.386 30.4453 228.612 29.8251 227.733 29.3988C226.854 28.9724 225.893 28.7507 224.919 28.7497C224.133 28.7334 223.353 28.8837 222.628 29.191C221.903 29.4984 221.249 29.9559 220.708 30.5344C220.167 31.1129 219.751 31.7996 219.487 32.5505C219.223 33.3014 219.117 34.1 219.174 34.8952C219.122 35.6836 219.232 36.4744 219.496 37.2178C219.76 37.9612 220.173 38.6411 220.708 39.2147C221.244 39.7884 221.891 40.2433 222.608 40.5509C223.325 40.8585 224.098 41.0121 224.876 41.0021C225.881 40.9854 226.87 40.7466 227.774 40.3026C228.679 39.8585 229.477 39.2197 230.113 38.4308V41.8399C228.618 42.9538 226.81 43.5513 224.956 43.5445C223.82 43.5961 222.685 43.4104 221.622 42.9989C220.56 42.5874 219.592 41.9589 218.779 41.1523C217.965 40.3457 217.324 39.3783 216.894 38.3098C216.465 37.2414 216.256 36.0949 216.281 34.9413C216.25 33.7807 216.454 32.6261 216.881 31.5486C217.307 30.4712 217.946 29.4938 218.759 28.6766C219.572 27.8594 220.541 27.2199 221.607 26.7974C222.672 26.375 223.812 26.1785 224.956 26.2202C226.758 26.199 228.521 26.7537 229.996 27.8058L229.998 31.2139Z" fill="#18283B"/>
<path d="M241.288 30.4189C241.119 29.9429 240.812 29.5295 240.408 29.2326C240.004 28.9357 239.521 28.769 239.022 28.754C238.77 28.7312 238.516 28.7629 238.277 28.8468C238.037 28.9308 237.818 29.0651 237.634 29.2411C237.449 29.4171 237.303 29.6306 237.206 29.8678C237.109 30.105 237.062 30.3603 237.069 30.6171C237.069 31.8064 237.85 32.1632 239.686 32.956C242.032 33.947 243.126 34.7002 243.751 35.4941C244.352 36.2409 244.658 37.1873 244.61 38.15C244.61 41.5988 242.148 43.5413 239.022 43.5413C237.755 43.5653 236.515 43.1674 235.492 42.4086C234.469 41.6497 233.719 40.5716 233.357 39.3393L235.779 38.3086C235.986 39.0461 236.412 39.7009 237 40.1834C237.587 40.6658 238.307 40.9525 239.061 41.0042C239.409 41.024 239.756 40.9705 240.082 40.8471C240.408 40.7237 240.706 40.5331 240.955 40.2872C241.205 40.0414 241.402 39.7457 241.533 39.4188C241.665 39.0919 241.728 38.7408 241.719 38.3879C241.719 36.8408 240.625 36.3266 239.1 35.6516C237.625 35.1506 236.278 34.3248 235.154 33.2335C234.625 32.5461 234.362 31.6859 234.415 30.8153C234.388 30.1871 234.494 29.5603 234.724 28.9766C234.955 28.393 235.306 27.8661 235.753 27.4309C236.201 26.9957 236.734 26.6623 237.319 26.453C237.903 26.2437 238.525 26.1632 239.143 26.217C240.095 26.1932 241.032 26.4652 241.828 26.9965C242.624 27.5278 243.241 28.2932 243.597 29.1901L241.288 30.4189Z" fill="#18283B"/>
<path d="M53.892 26.1559L52.4137 25.3791L46.6165 36.7358C46.316 36.4354 45.9582 36.2005 45.565 36.0455C45.1718 35.8906 44.7515 35.8189 44.3299 35.8348C43.9084 35.8508 43.4945 35.954 43.1138 36.1383C42.733 36.3225 42.3935 36.5839 42.1159 36.9062L36.6334 29.4676C36.5975 29.4118 36.5479 29.3711 36.5098 29.3186C36.6105 29.0124 36.6639 28.6922 36.6682 28.3694C36.675 27.9081 36.5823 27.4508 36.3968 27.0296C36.2112 26.6084 35.9372 26.2334 35.594 25.9308C35.2507 25.6283 34.8464 25.4054 34.4094 25.2778C33.9724 25.1503 33.5133 25.1211 33.064 25.1923C32.6147 25.2636 32.1862 25.4335 31.8084 25.6903C31.4306 25.947 31.1126 26.2844 30.8767 26.6788C30.6408 27.0732 30.4926 27.5152 30.4426 27.9737C30.3925 28.4323 30.4418 28.8964 30.587 29.3336C30.5553 29.3786 30.513 29.4118 30.4814 29.459L26.6303 36.1948C26.0457 35.6685 25.2862 35.3869 24.5049 35.4068C23.7237 35.4267 22.979 35.7466 22.4212 36.3019L17.3209 27.6783C17.446 27.3382 17.5117 26.9786 17.5152 26.6155C17.5002 25.7852 17.1645 24.9941 16.5805 24.4124C15.9964 23.8306 15.2107 23.5046 14.3922 23.5046C13.5737 23.5046 12.788 23.8306 12.2039 24.4124C11.6199 24.9941 11.2842 25.7852 11.2692 26.6155C11.2692 26.6252 11.2692 26.6337 11.2692 26.6434C11.1636 26.7366 11.0643 26.8094 10.963 26.9123L1.85107 36.3512L3.04114 37.5297L11.8331 28.423C12.0701 28.7717 12.3742 29.0682 12.7272 29.2946C13.0802 29.521 13.4746 29.6725 13.8868 29.7401C14.299 29.8076 14.7205 29.7898 15.1257 29.6878C15.531 29.5857 15.9117 29.4015 16.2449 29.1461L21.5205 38.0708C21.4506 38.5024 21.4698 38.944 21.5767 39.3677C21.6836 39.7914 21.8759 40.1881 22.1415 40.5326C22.4071 40.8771 22.7402 41.1619 23.1198 41.3692C23.4994 41.5765 23.9173 41.7016 24.347 41.7368C24.7767 41.7719 25.2089 41.7163 25.6163 41.5734C26.0237 41.4305 26.3975 41.2035 26.7141 40.9066C27.0307 40.6097 27.2831 40.2495 27.4555 39.8486C27.628 39.4477 27.7166 39.0149 27.7158 38.5775C27.7136 38.3245 27.681 38.0726 27.6186 37.8276L31.6165 30.8368C32.1704 31.2956 32.8654 31.5428 33.5805 31.5354C34.2955 31.528 34.9854 31.2663 35.5299 30.7961L41.3462 38.6868C41.3301 38.7933 41.3195 38.9006 41.3145 39.0082C41.3295 39.8385 41.6652 40.6296 42.2492 41.2114C42.8332 41.7932 43.619 42.1191 44.4375 42.1191C45.2559 42.1191 46.0417 41.7932 46.6258 41.2114C47.2098 40.6296 47.5454 39.8385 47.5605 39.0082C47.5554 38.8836 47.5427 38.7595 47.5225 38.6365L53.892 26.1559ZM14.3853 29.0765C13.905 29.0765 13.4354 28.932 13.036 28.6612C12.6366 28.3904 12.3253 28.0056 12.1415 27.5553C11.9577 27.105 11.9096 26.6096 12.0033 26.1316C12.097 25.6536 12.3283 25.2145 12.668 24.8699C13.0076 24.5252 13.4404 24.2906 13.9115 24.1955C14.3826 24.1004 14.871 24.1492 15.3148 24.3357C15.7586 24.5222 16.1379 24.8381 16.4047 25.2433C16.6716 25.6485 16.8141 26.1249 16.8141 26.6123C16.8141 26.9359 16.7512 27.2563 16.6292 27.5553C16.5071 27.8543 16.3282 28.1259 16.1027 28.3548C15.8772 28.5836 15.6094 28.7651 15.3148 28.8889C15.0201 29.0128 14.7043 29.0765 14.3853 29.0765ZM24.5933 41.0578C24.113 41.0578 23.6434 40.9133 23.244 40.6425C22.8446 40.3717 22.5333 39.9869 22.3495 39.5366C22.1657 39.0863 22.1176 38.5909 22.2113 38.1129C22.305 37.6349 22.5363 37.1958 22.876 36.8512C23.2156 36.5065 23.6484 36.2719 24.1195 36.1768C24.5906 36.0817 25.079 36.1305 25.5227 36.317C25.9665 36.5035 26.3458 36.8193 26.6127 37.2246C26.8796 37.6298 27.022 38.1062 27.022 38.5936C27.022 39.2471 26.7661 39.8739 26.3107 40.336C25.8552 40.7982 25.2375 41.0578 24.5933 41.0578ZM33.55 30.7918C33.0696 30.7918 32.6001 30.6473 32.2007 30.3765C31.8013 30.1057 31.49 29.7209 31.3061 29.2706C31.1223 28.8203 31.0742 28.3249 31.1679 27.8469C31.2617 27.3689 31.493 26.9298 31.8326 26.5852C32.1723 26.2405 32.605 26.0058 33.0762 25.9108C33.5473 25.8157 34.0356 25.8645 34.4794 26.051C34.9232 26.2375 35.3025 26.5533 35.5694 26.9586C35.8363 27.3638 35.9787 27.8402 35.9787 28.3276C35.9787 28.9811 35.7228 29.6079 35.2673 30.07C34.8119 30.5322 34.1941 30.7918 33.55 30.7918ZM44.4391 41.4681C43.9587 41.4681 43.4891 41.3236 43.0897 41.0528C42.6903 40.7821 42.379 40.3972 42.1952 39.9469C42.0114 39.4967 41.9633 39.0012 42.057 38.5232C42.1507 38.0452 42.382 37.6061 42.7217 37.2615C43.0614 36.9169 43.4941 36.6822 43.9652 36.5871C44.4364 36.492 44.9247 36.5408 45.3685 36.7273C45.8123 36.9138 46.1916 37.2297 46.4585 37.6349C46.7253 38.0402 46.8678 38.5166 46.8678 39.0039C46.8678 39.6575 46.6119 40.2843 46.1564 40.7464C45.7009 41.2085 45.0832 41.4681 44.4391 41.4681Z" fill="#18283B"/>
</svg>
