<svg width="233" height="55" viewBox="0 0 233 55" fill="none" xmlns="http://www.w3.org/2000/svg">
<path d="M51.009 34.962C49.2146 40.4983 45.5087 45.2154 40.5546 48.2694C35.6004 51.3234 29.7212 52.515 23.9689 51.6309C18.2165 50.7469 12.9665 47.8448 9.15805 43.4441C5.3496 39.0434 3.23129 33.4311 3.18213 27.6114C3.13297 21.7918 5.15617 16.1445 8.88973 11.6801C12.6233 7.21563 17.8236 4.22533 23.5601 3.2442C29.2967 2.26307 35.1952 3.35515 40.2002 6.32503C45.2053 9.2949 48.9903 13.9488 50.878 19.454H53.642C51.732 13.221 47.6422 7.88375 42.1205 4.41825C36.5988 0.95276 30.0142 -0.409427 23.5707 0.580781C17.1273 1.57099 11.2555 4.84742 7.02916 9.81096C2.80281 14.7745 0.504285 21.0935 0.553887 27.6124C0.603489 34.1313 2.9979 40.4145 7.29929 45.3132C11.6007 50.2118 17.5216 53.3985 23.9794 54.2906C30.4372 55.1826 37.0003 53.7204 42.4686 50.1713C47.9369 46.6222 51.945 41.2233 53.76 34.962H51.009Z" fill="#246BFD"/>
<path d="M62.8541 15.781L69.3661 32.281L76.0271 14.6L82.4651 32.287L89.1991 15.787H93.2701L82.2431 42.053L75.8001 24.551L69.2881 42.051L58.7831 15.781H62.8541Z" fill="#246BFD"/>
<path d="M102 15.781C103.892 15.6853 105.77 16.1486 107.4 17.113C108.366 17.7833 109.152 18.6816 109.687 19.7282C110.223 20.7748 110.492 21.9374 110.471 23.113C110.494 24.1349 110.291 25.1493 109.875 26.0831C109.459 27.0168 108.841 27.8467 108.066 28.513C106.359 29.8714 104.213 30.5563 102.034 30.438H100.334V40.462H96.5601V15.781H102ZM100.335 26.956H102.035C105.292 26.956 106.846 25.365 106.846 23.071C106.846 21.702 106.291 19.259 101.998 19.259H100.333L100.335 26.956Z" fill="#246BFD"/>
<path d="M125.754 20.666C125.401 19.9592 124.91 19.3301 124.31 18.816C123.507 18.2284 122.529 17.9282 121.535 17.964C119.094 17.964 117.391 19.482 117.391 21.776C117.366 22.1811 117.437 22.5865 117.598 22.9593C117.758 23.3321 118.004 23.6619 118.316 23.922C119.074 24.5986 119.952 25.1258 120.906 25.476L123.274 26.512C124.68 27.0431 125.973 27.8338 127.086 28.843C127.678 29.4239 128.142 30.1223 128.448 30.8934C128.754 31.6645 128.895 32.4911 128.862 33.32C128.862 37.872 125.495 40.906 121.054 40.906C120.072 40.9479 119.091 40.7925 118.169 40.449C117.248 40.1055 116.404 39.5808 115.689 38.906C114.53 37.6943 113.735 36.1815 113.395 34.54L116.059 33.8C116.22 34.9743 116.737 36.0712 117.539 36.944C118.247 37.6095 119.132 38.0568 120.088 38.2322C121.044 38.4076 122.03 38.3036 122.928 37.9327C123.826 37.5618 124.599 36.9398 125.152 36.1412C125.706 35.3426 126.018 34.4012 126.05 33.43C126.071 32.8886 125.973 32.3491 125.762 31.85C125.551 31.351 125.232 30.9047 124.829 30.543C123.939 29.8227 122.939 29.2488 121.868 28.843L119.648 27.807C118.438 27.3298 117.323 26.6407 116.355 25.772C115.791 25.2669 115.347 24.6434 115.053 23.9461C114.759 23.2488 114.623 22.495 114.655 21.739C114.655 17.927 117.578 15.374 121.574 15.374C122.978 15.3197 124.363 15.708 125.534 16.484C126.549 17.1845 127.376 18.1255 127.939 19.223L125.754 20.666Z" fill="#246BFD"/>
<path d="M136.149 27.548V40.462H133.485V27.548H131.857V25.106H133.485V19.556H136.149V25.106H138.814V27.548H136.149Z" fill="#246BFD"/>
<path d="M153.281 25.106H155.945V40.462H153.281V38.316C152.67 39.13 151.876 39.7887 150.963 40.2386C150.05 40.6886 149.044 40.9172 148.026 40.906C144.141 40.906 140.552 38.168 140.552 32.766C140.552 27.474 144.104 24.736 148.026 24.736C149.042 24.71 150.05 24.9283 150.964 25.3726C151.879 25.8168 152.673 26.474 153.281 27.289V25.106ZM143.29 32.766C143.29 36.059 145.14 38.538 148.322 38.538C151.579 38.538 153.428 35.838 153.428 32.803C153.428 28.843 150.69 27.103 148.322 27.103C145.7 27.1 143.29 29.028 143.29 32.766Z" fill="#246BFD"/>
<path d="M163.9 27.548V40.462H161.236V27.548H159.608V25.106H161.236V19.556H163.9V25.106H166.565V27.548H163.9Z" fill="#246BFD"/>
<path d="M170.6 17.409C170.973 17.4088 171.339 17.5194 171.649 17.7267C171.96 17.934 172.202 18.2288 172.345 18.5738C172.488 18.9188 172.526 19.2984 172.453 19.6647C172.38 20.031 172.2 20.3675 171.936 20.6317C171.672 20.8958 171.336 21.0757 170.97 21.1486C170.603 21.2216 170.224 21.1842 169.879 21.0414C169.534 20.8985 169.239 20.6565 169.031 20.346C168.824 20.0355 168.713 19.6705 168.713 19.297C168.715 18.797 168.914 18.318 169.268 17.9644C169.621 17.6107 170.1 17.4111 170.6 17.409ZM171.933 25.109V40.462H169.268V25.106L171.933 25.109Z" fill="#246BFD"/>
<path d="M183.471 28.658C183.31 28.2137 183.02 27.8279 182.637 27.5507C182.255 27.2736 181.797 27.118 181.325 27.104C181.086 27.0828 180.846 27.1123 180.619 27.1906C180.392 27.269 180.185 27.3944 180.01 27.5586C179.835 27.7229 179.697 27.9222 179.605 28.1436C179.513 28.3649 179.469 28.6033 179.475 28.843C179.475 29.953 180.215 30.286 181.954 31.026C184.175 31.951 185.211 32.654 185.803 33.395C186.372 34.092 186.662 34.9754 186.617 35.874C186.617 39.093 184.285 40.906 181.325 40.906C180.125 40.9284 178.951 40.5571 177.982 39.8488C177.013 39.1405 176.303 38.1342 175.96 36.984L178.254 36.022C178.45 36.7104 178.854 37.3215 179.41 37.7718C179.966 38.2222 180.648 38.4897 181.362 38.538C181.691 38.5565 182.02 38.5066 182.329 38.3914C182.638 38.2762 182.919 38.0983 183.156 37.8688C183.392 37.6393 183.579 37.3633 183.703 37.0582C183.828 36.7531 183.888 36.4254 183.879 36.096C183.879 34.652 182.843 34.172 181.399 33.542C180.002 33.0744 178.726 32.3036 177.662 31.285C177.161 30.6434 176.912 29.8406 176.962 29.028C176.937 28.4416 177.036 27.8565 177.255 27.3118C177.474 26.7671 177.806 26.2752 178.229 25.869C178.653 25.4629 179.159 25.1517 179.712 24.9563C180.266 24.7609 180.854 24.6858 181.439 24.736C182.341 24.7138 183.228 24.9677 183.982 25.4636C184.736 25.9595 185.32 26.6739 185.657 27.511L183.471 28.658Z" fill="#246BFD"/>
<path d="M193.091 27.548V40.462H190.427V27.548H188.8V25.106H190.428V19.556H193.092V25.106H195.757V27.548H193.091Z" fill="#246BFD"/>
<path d="M199.788 17.409C200.161 17.409 200.526 17.5197 200.837 17.727C201.147 17.9343 201.389 18.229 201.532 18.5738C201.675 18.9186 201.713 19.2981 201.64 19.6642C201.567 20.0304 201.388 20.3668 201.124 20.631C200.86 20.8951 200.524 21.0752 200.158 21.1484C199.792 21.2215 199.413 21.1846 199.068 21.0421C198.723 20.8997 198.427 20.6582 198.22 20.3481C198.012 20.038 197.901 19.6733 197.9 19.3C197.902 18.7997 198.102 18.3206 198.455 17.9665C198.809 17.6125 199.288 17.4122 199.788 17.409ZM201.12 25.109V40.462H198.456V25.106L201.12 25.109Z" fill="#246BFD"/>
<path d="M218.362 29.4C217.782 28.6826 217.049 28.1037 216.217 27.7058C215.385 27.3079 214.474 27.1009 213.552 27.1C212.808 27.0848 212.069 27.2251 211.382 27.5119C210.696 27.7988 210.076 28.2258 209.564 28.7658C209.052 29.3057 208.659 29.9467 208.408 30.6476C208.158 31.3485 208.057 32.0938 208.112 32.836C208.063 33.5719 208.166 34.31 208.416 35.0039C208.666 35.6977 209.057 36.3323 209.565 36.8677C210.072 37.4032 210.684 37.8278 211.364 38.1149C212.043 38.402 212.775 38.5454 213.512 38.536C214.463 38.5204 215.4 38.2976 216.256 37.8831C217.113 37.4686 217.868 36.8724 218.471 36.136V39.318C217.055 40.3577 215.343 40.9154 213.587 40.909C212.511 40.9572 211.437 40.7839 210.43 40.3998C209.424 40.0157 208.508 39.4291 207.737 38.6762C206.967 37.9234 206.36 37.0204 205.953 36.0231C205.546 35.0259 205.348 33.9558 205.372 32.879C205.343 31.7958 205.536 30.7181 205.94 29.7124C206.343 28.7068 206.949 27.7945 207.718 27.0317C208.488 26.269 209.406 25.6721 210.415 25.2778C211.425 24.8835 212.504 24.7001 213.587 24.739C215.294 24.7192 216.964 25.237 218.36 26.219L218.362 29.4Z" fill="#246BFD"/>
<path d="M229.054 28.658C228.893 28.2137 228.603 27.8279 228.22 27.5507C227.837 27.2736 227.38 27.118 226.908 27.104C226.669 27.0828 226.428 27.1123 226.202 27.1906C225.975 27.269 225.768 27.3944 225.593 27.5586C225.418 27.7229 225.28 27.9222 225.188 28.1436C225.096 28.3649 225.052 28.6033 225.058 28.843C225.058 29.953 225.798 30.286 227.537 31.026C229.758 31.951 230.794 32.654 231.386 33.395C231.955 34.092 232.245 34.9754 232.2 35.874C232.2 39.093 229.868 40.906 226.908 40.906C225.708 40.9284 224.534 40.5571 223.565 39.8488C222.596 39.1405 221.886 38.1342 221.543 36.984L223.837 36.022C224.033 36.7104 224.437 37.3215 224.993 37.7718C225.549 38.2222 226.231 38.4897 226.945 38.538C227.274 38.5565 227.603 38.5066 227.912 38.3914C228.221 38.2762 228.502 38.0983 228.739 37.8688C228.975 37.6393 229.162 37.3633 229.286 37.0582C229.411 36.7531 229.471 36.4254 229.462 36.096C229.462 34.652 228.426 34.172 226.982 33.542C225.585 33.0744 224.309 32.3036 223.245 31.285C222.744 30.6434 222.495 29.8406 222.545 29.028C222.52 28.4416 222.619 27.8565 222.838 27.3118C223.056 26.7671 223.389 26.2752 223.812 25.869C224.236 25.4629 224.741 25.1517 225.295 24.9563C225.848 24.7609 226.437 24.6858 227.022 24.736C227.924 24.7138 228.811 24.9677 229.565 25.4636C230.319 25.9595 230.903 26.6739 231.24 27.511L229.054 28.658Z" fill="#246BFD"/>
<path d="M51.589 24.679L50.189 23.954L44.699 34.554C44.4145 34.2735 44.0757 34.0543 43.7033 33.9096C43.3309 33.765 42.9329 33.6981 42.5337 33.713C42.1345 33.7279 41.7426 33.8243 41.382 33.9962C41.0214 34.1682 40.6998 34.4121 40.437 34.713L35.245 27.77C35.211 27.718 35.164 27.68 35.128 27.631C35.2233 27.3451 35.2739 27.0463 35.278 26.745C35.2844 26.3144 35.1967 25.8876 35.021 25.4945C34.8452 25.1013 34.5858 24.7513 34.2607 24.4689C33.9356 24.1865 33.5528 23.9785 33.1389 23.8594C32.7251 23.7403 32.2902 23.7131 31.8648 23.7796C31.4393 23.8461 31.0335 24.0047 30.6757 24.2443C30.318 24.484 30.0168 24.7989 29.7934 25.167C29.57 25.5352 29.4297 25.9477 29.3823 26.3757C29.3349 26.8037 29.3816 27.2369 29.519 27.645C29.489 27.687 29.449 27.718 29.419 27.762L25.772 34.049C25.2185 33.5578 24.4992 33.2949 23.7593 33.3135C23.0195 33.332 22.3143 33.6306 21.786 34.149L16.956 26.1C17.0745 25.7825 17.1367 25.4468 17.14 25.108C17.1258 24.333 16.8079 23.5946 16.2548 23.0516C15.7017 22.5086 14.9576 22.2043 14.1825 22.2043C13.4074 22.2043 12.6633 22.5086 12.1102 23.0516C11.5571 23.5946 11.2393 24.333 11.225 25.108C11.225 25.117 11.225 25.125 11.225 25.134C11.125 25.221 11.031 25.289 10.935 25.385L2.30603 34.195L3.43303 35.295L11.759 26.795C11.9835 27.1205 12.2715 27.3973 12.6058 27.6085C12.94 27.8198 13.3136 27.9612 13.7039 28.0243C14.0943 28.0874 14.4934 28.0708 14.8772 27.9755C15.261 27.8802 15.6215 27.7083 15.937 27.47L20.933 35.8C20.8669 36.2028 20.885 36.615 20.9863 37.0105C21.0875 37.406 21.2696 37.7762 21.5211 38.0977C21.7727 38.4193 22.0881 38.6852 22.4476 38.8786C22.8071 39.0721 23.2028 39.1889 23.6097 39.2217C24.0167 39.2545 24.426 39.2026 24.8118 39.0692C25.1976 38.9359 25.5516 38.7239 25.8514 38.4468C26.1512 38.1697 26.3903 37.8335 26.5536 37.4593C26.7168 37.0852 26.8008 36.6812 26.8 36.273C26.7979 36.0368 26.767 35.8017 26.708 35.573L30.494 29.048C31.0186 29.4762 31.6768 29.707 32.3539 29.7C33.0311 29.6931 33.6843 29.4489 34.2 29.01L39.708 36.375C39.6929 36.4744 39.6828 36.5745 39.678 36.675C39.6923 37.4499 40.0101 38.1883 40.5632 38.7313C41.1163 39.2743 41.8604 39.5786 42.6355 39.5786C43.4106 39.5786 44.1547 39.2743 44.7078 38.7313C45.2609 38.1883 45.5788 37.4499 45.593 36.675C45.5882 36.5587 45.5761 36.4428 45.557 36.328L51.589 24.679ZM14.176 27.405C13.7211 27.405 13.2765 27.2701 12.8982 27.0173C12.52 26.7646 12.2252 26.4054 12.0511 25.9851C11.877 25.5649 11.8315 25.1024 11.9202 24.6563C12.009 24.2101 12.228 23.8003 12.5497 23.4786C12.8713 23.157 13.2812 22.9379 13.7273 22.8492C14.1735 22.7604 14.6359 22.806 15.0562 22.98C15.4765 23.1541 15.8357 23.4489 16.0884 23.8271C16.3411 24.2054 16.476 24.6501 16.476 25.105C16.476 25.407 16.4165 25.7061 16.301 25.9851C16.1854 26.2642 16.016 26.5177 15.8024 26.7313C15.5888 26.9449 15.3353 27.1143 15.0562 27.2299C14.7772 27.3455 14.4781 27.405 14.176 27.405ZM23.843 38.588C23.3881 38.588 22.9435 38.4531 22.5652 38.2003C22.187 37.9476 21.8922 37.5884 21.7181 37.1681C21.544 36.7479 21.4985 36.2854 21.5872 35.8393C21.676 35.3931 21.895 34.9833 22.2167 34.6616C22.5383 34.34 22.9482 34.1209 23.3943 34.0322C23.8405 33.9434 24.3029 33.989 24.7232 34.163C25.1435 34.3371 25.5027 34.6319 25.7554 35.0101C26.0081 35.3884 26.143 35.8331 26.143 36.288C26.143 36.898 25.9007 37.483 25.4694 37.9143C25.038 38.3456 24.453 38.588 23.843 38.588ZM32.325 29.006C31.8701 29.006 31.4255 28.8711 31.0472 28.6183C30.669 28.3656 30.3742 28.0064 30.2001 27.5861C30.026 27.1659 29.9805 26.7034 30.0692 26.2573C30.158 25.8111 30.377 25.4013 30.6987 25.0796C31.0203 24.758 31.4302 24.5389 31.8763 24.4502C32.3225 24.3614 32.7849 24.407 33.2052 24.581C33.6255 24.7551 33.9847 25.0499 34.2374 25.4281C34.4901 25.8064 34.625 26.2511 34.625 26.706C34.625 27.316 34.3827 27.901 33.9514 28.3323C33.52 28.7636 32.935 29.006 32.325 29.006ZM42.637 38.971C42.1821 38.971 41.7375 38.8361 41.3592 38.5833C40.981 38.3306 40.6862 37.9714 40.5121 37.5511C40.338 37.1309 40.2925 36.6684 40.3812 36.2223C40.47 35.7761 40.689 35.3663 41.0107 35.0446C41.3323 34.723 41.7422 34.5039 42.1883 34.4152C42.6345 34.3264 43.0969 34.372 43.5172 34.546C43.9375 34.7201 44.2967 35.0149 44.5494 35.3931C44.8021 35.7714 44.937 36.2161 44.937 36.671C44.937 37.281 44.6947 37.866 44.2634 38.2973C43.832 38.7286 43.247 38.971 42.637 38.971Z" fill="#246BFD"/>
</svg>
