<svg width="41" height="40" viewBox="0 0 41 40" fill="none" xmlns="http://www.w3.org/2000/svg">
<path d="M15.7668 18.1167C15.6001 18.1 15.4001 18.1 15.2168 18.1167C11.2501 17.9834 8.1001 14.7334 8.1001 10.7334C8.1001 6.65004 11.4001 3.33337 15.5001 3.33337C19.5834 3.33337 22.9001 6.65004 22.9001 10.7334C22.8834 14.7334 19.7334 17.9834 15.7668 18.1167Z" stroke="#489DFF" stroke-width="1.5" stroke-linecap="round" stroke-linejoin="round"/>
<path d="M27.85 6.66663C31.0833 6.66663 33.6833 9.28329 33.6833 12.5C33.6833 15.65 31.1833 18.2166 28.0666 18.3333C27.9333 18.3166 27.7833 18.3166 27.6333 18.3333" stroke="#489DFF" stroke-width="1.5" stroke-linecap="round" stroke-linejoin="round"/>
<path d="M7.4332 24.2666C3.39987 26.9666 3.39987 31.3666 7.4332 34.05C12.0165 37.1166 19.5332 37.1166 24.1165 34.05C28.1499 31.35 28.1499 26.95 24.1165 24.2666C19.5499 21.2166 12.0332 21.2166 7.4332 24.2666Z" stroke="#489DFF" stroke-width="1.5" stroke-linecap="round" stroke-linejoin="round"/>
<path d="M31.0669 33.3334C32.2669 33.0834 33.4002 32.6 34.3336 31.8834C36.9336 29.9334 36.9336 26.7167 34.3336 24.7667C33.4169 24.0667 32.3002 23.6 31.1169 23.3334" stroke="#489DFF" stroke-width="1.5" stroke-linecap="round" stroke-linejoin="round"/>
</svg>
