<svg width="41" height="40" viewBox="0 0 41 40" fill="none" xmlns="http://www.w3.org/2000/svg">
<path d="M20.5002 36.6667C29.7049 36.6667 37.1668 29.2048 37.1668 20C37.1668 10.7953 29.7049 3.33337 20.5002 3.33337C11.2954 3.33337 3.8335 10.7953 3.8335 20C3.8335 29.2048 11.2954 36.6667 20.5002 36.6667Z" stroke="#489DFF" stroke-width="1.5" stroke-linecap="round" stroke-linejoin="round"/>
<path d="M13.8333 5H15.5C12.25 14.7333 12.25 25.2667 15.5 35H13.8333" stroke="#489DFF" stroke-width="1.5" stroke-linecap="round" stroke-linejoin="round"/>
<path d="M25.5 5C28.75 14.7333 28.75 25.2667 25.5 35" stroke="#489DFF" stroke-width="1.5" stroke-linecap="round" stroke-linejoin="round"/>
<path d="M5.5 26.6667V25C15.2333 28.25 25.7667 28.25 35.5 25V26.6667" stroke="#489DFF" stroke-width="1.5" stroke-linecap="round" stroke-linejoin="round"/>
<path d="M5.5 15C15.2333 11.75 25.7667 11.75 35.5 15" stroke="#489DFF" stroke-width="1.5" stroke-linecap="round" stroke-linejoin="round"/>
</svg>
