<svg width="50" height="166" viewBox="0 0 50 166" fill="none" xmlns="http://www.w3.org/2000/svg">
<circle cx="24.5" cy="24.5" r="24.5" fill="white"/>
<path opacity="0.5" d="M24 35.6667C30.4433 35.6667 35.6667 30.4433 35.6667 24C35.6667 17.5567 30.4433 12.3333 24 12.3333C17.5567 12.3333 12.3333 17.5567 12.3333 24C12.3333 30.4433 17.5567 35.6667 24 35.6667Z" fill="#246BFD"/>
<path d="M22.9796 17.9606C23.8201 17.818 24.7046 17.8495 25.5848 18.0854C28.8513 18.9607 30.7898 22.3183 29.9146 25.5848C29.0393 28.8514 25.6817 30.7899 22.4151 29.9146C19.1486 29.0393 17.21 25.6817 18.0853 22.4152C18.235 21.8567 18.4566 21.3381 18.7373 20.8662L19.564 21.5353C19.1577 22.2652 18.926 23.1062 18.926 24C18.926 26.8023 21.1977 29.074 23.9999 29.074C26.8022 29.074 29.0739 26.8023 29.0739 24C29.0739 21.1977 26.8022 18.926 23.9999 18.926C23.5167 18.926 23.1249 19.3178 23.1249 19.801C23.1249 20.2843 23.5167 20.676 23.9999 20.676C25.8357 20.676 27.3239 22.1642 27.3239 24C27.3239 25.8358 25.8357 27.324 23.9999 27.324C22.1642 27.324 20.676 25.8358 20.676 24C20.676 23.5235 20.7759 23.0711 20.956 22.662L23.4494 24.6801C23.8251 24.9842 24.376 24.9261 24.6801 24.5505C24.9841 24.1749 24.9261 23.6239 24.5504 23.3199L19.653 19.356C18.9979 18.8257 17.9432 18.8751 17.4148 19.6809C16.9661 20.3654 16.6176 21.1311 16.3949 21.9622C15.2695 26.1624 17.7621 30.4796 21.9622 31.605C26.1623 32.7304 30.4795 30.2379 31.6049 26.0378C32.7303 21.8376 30.2378 17.5204 26.0377 16.395C24.9095 16.0927 23.7705 16.0514 22.6869 16.2353C22.2105 16.3161 21.8898 16.7679 21.9706 17.2443C22.0514 17.7208 22.5032 18.0415 22.9796 17.9606Z" fill="#246BFD"/>
<circle cx="25.5" cy="62.5" r="23.5" fill="white" stroke="#246BFD" stroke-width="2"/>
<path fill-rule="evenodd" clip-rule="evenodd" d="M34.9997 65V68C34.9997 69.8856 34.9997 70.8284 34.4139 71.4142C33.8282 72 32.8854 72 30.9997 72C29.1141 72 28.1713 72 27.5855 71.4142C26.9997 70.8284 26.9997 69.8856 26.9997 68V65C26.9997 63.1144 26.9997 62.1716 27.5855 61.5858C28.1713 61 29.1141 61 30.9997 61C32.8854 61 33.8282 61 34.4139 61.5858C34.9997 62.1716 34.9997 63.1144 34.9997 65ZM29.2497 70C29.2497 69.5858 29.5855 69.25 29.9997 69.25H31.9997C32.4139 69.25 32.7497 69.5858 32.7497 70C32.7497 70.4142 32.4139 70.75 31.9997 70.75H29.9997C29.5855 70.75 29.2497 70.4142 29.2497 70Z" fill="#246BFD"/>
<path d="M20.9997 67C18.1713 67 16.7571 67 15.8784 66.1213C15.3091 65.552 15.0706 64.7579 15 63.5V63H25.5162V63.5C25.4996 63.9365 25.4997 64.4116 25.4997 64.9105V68.0895C25.4996 68.9551 25.4995 69.7488 25.5863 70.3944C25.6819 71.1054 25.9068 71.8568 26.5249 72.4749L26.5503 72.5H20.9997C20.5855 72.5 20.2497 72.1642 20.2497 71.75C20.2497 71.3358 20.5855 71 20.9997 71H24.2497V67H20.9997Z" fill="#246BFD"/>
<path opacity="0.5" d="M23 52H27C30.7712 52 32.6569 52 33.8284 53.1716C35 54.3431 35 56.2288 35 60V60.1383C34.4917 59.8048 33.9315 59.6588 33.3944 59.5866C32.7488 59.4998 31.9551 59.4999 31.0895 59.5H30.9105C30.0449 59.4999 29.2512 59.4998 28.6056 59.5866C27.8946 59.6822 27.1432 59.9071 26.5251 60.5251C25.9376 61.1127 25.7053 61.8207 25.6017 62.5V63H15L15 62.5C14.9935 62.0494 15 61.5516 15 61V60C15 56.2288 15 54.3431 16.1716 53.1716C17.3431 52 19.2288 52 23 52Z" fill="#246BFD"/>
<circle cx="24.5" cy="99.5" r="23.5" fill="white" stroke="#246BFD" stroke-width="2"/>
<circle opacity="0.5" cx="24" cy="99" r="11.6667" fill="#246BFD"/>
<path d="M20.0044 96.0219C19.7859 93.5903 17.9107 91.3246 17.0004 90.4956L16.4976 90.0655C18.5259 88.3604 21.1432 87.3333 24.0004 87.3333C26.5827 87.3333 28.969 88.1723 30.9017 89.5925C31.1748 90.4214 30.6547 92.1535 30.1085 92.9825C29.9107 93.2827 29.462 93.6555 28.9703 94.0088C27.8614 94.8056 26.4619 95.1996 25.7504 96.6667C25.547 97.086 25.5557 97.496 25.6535 97.8523C25.7239 98.1085 25.7688 98.3869 25.7695 98.6593C25.7718 99.54 24.8811 100.176 24.0004 100.167C21.7087 100.142 20.2086 98.2948 20.0044 96.0219Z" fill="#246BFD"/>
<path d="M25.6759 106.322C26.8287 104.15 30.6713 104.15 30.6713 104.15C34.6752 104.108 35.2161 101.677 35.5777 100.448C34.9306 105.676 30.8243 109.832 25.6199 110.555C25.2435 109.763 24.7977 107.977 25.6759 106.322Z" fill="#246BFD"/>
<circle cx="24.5" cy="138.5" r="23.5" fill="white" stroke="#246BFD" stroke-width="2"/>
<path fill-rule="evenodd" clip-rule="evenodd" d="M27 146.5V130.25C27 129.522 26.9984 129.051 26.9518 128.704C26.908 128.379 26.8374 128.277 26.7803 128.22C26.7232 128.163 26.6213 128.092 26.296 128.048C25.9491 128.002 25.4783 128 24.75 128C24.0217 128 23.5509 128.002 23.204 128.048C22.8787 128.092 22.7768 128.163 22.7197 128.22C22.6626 128.277 22.592 128.379 22.5482 128.704C22.5016 129.051 22.5 129.522 22.5 130.25V146.5H27Z" fill="#246BFD"/>
<path opacity="0.7" d="M21 134.75C21 134.336 20.6642 134 20.25 134H17.25C16.8358 134 16.5 134.336 16.5 134.75V146.5H21V134.75Z" fill="#246BFD"/>
<path opacity="0.7" d="M33 139.75C33 139.336 32.6642 139 32.25 139H29.25C28.8358 139 28.5 139.336 28.5 139.75V146.5H33V139.75Z" fill="#246BFD"/>
<path opacity="0.5" d="M14.75 146.5C14.3358 146.5 14 146.836 14 147.25C14 147.664 14.3358 148 14.75 148H34.75C35.1642 148 35.5 147.664 35.5 147.25C35.5 146.836 35.1642 146.5 34.75 146.5H34.5H33H28.5H27H22.5H21H16.5H15H14.75Z" fill="#246BFD"/>
</svg>
