<svg width="237" height="59" viewBox="0 0 237 59" fill="none" xmlns="http://www.w3.org/2000/svg">
<path d="M53.009 36.962C51.2145 42.4983 47.5087 47.2155 42.5545 50.2695C37.6004 53.3235 31.7211 54.515 25.9688 53.631C20.2165 52.7469 14.9665 49.8448 11.158 45.4441C7.34957 41.0434 5.23126 35.4311 5.1821 29.6115C5.13294 23.7918 7.15614 18.1445 10.8897 13.6801C14.6233 9.21565 19.8235 6.22535 25.5601 5.24422C31.2967 4.2631 37.1952 5.35517 42.2002 8.32505C47.2053 11.2949 50.9903 15.9488 52.878 21.454H55.642C53.7319 15.221 49.6421 9.88377 44.1204 6.41827C38.5987 2.95278 32.0141 1.59059 25.5707 2.5808C19.1272 3.57101 13.2555 6.84745 9.02913 11.811C4.80278 16.7745 2.50425 23.0935 2.55386 29.6124C2.60346 36.1313 4.99787 42.4146 9.29926 47.3132C13.6006 52.2119 19.5216 55.3986 25.9794 56.2906C32.4371 57.1827 39.0003 55.7204 44.4686 52.1713C49.9369 48.6222 53.945 43.2233 55.76 36.962H53.009Z" fill="white"/>
<path d="M64.854 17.781L71.366 34.281L78.027 16.6L84.465 34.287L91.199 17.787H95.27L84.243 44.053L77.8 26.551L71.288 44.051L60.783 17.781H64.854Z" fill="white"/>
<path d="M104 17.781C105.892 17.6853 107.77 18.1485 109.4 19.113C110.366 19.7833 111.152 20.6816 111.687 21.7282C112.223 22.7748 112.492 23.9374 112.471 25.113C112.494 26.1349 112.291 27.1493 111.875 28.0831C111.459 29.0168 110.841 29.8467 110.066 30.513C108.359 31.8714 106.213 32.5563 104.034 32.438H102.334V42.462H98.56V17.781H104ZM102.335 28.956H104.035C107.292 28.956 108.846 27.365 108.846 25.071C108.846 23.702 108.291 21.259 103.998 21.259H102.333L102.335 28.956Z" fill="white"/>
<path d="M127.754 22.666C127.401 21.9592 126.91 21.3302 126.31 20.816C125.507 20.2284 124.529 19.9283 123.535 19.964C121.094 19.964 119.391 21.482 119.391 23.776C119.366 24.1812 119.437 24.5866 119.597 24.9593C119.758 25.3321 120.004 25.6619 120.316 25.922C121.074 26.5986 121.952 27.1259 122.906 27.476L125.274 28.512C126.68 29.0431 127.973 29.8338 129.086 30.843C129.678 31.4239 130.142 32.1224 130.448 32.8935C130.754 33.6645 130.895 34.4911 130.862 35.32C130.862 39.872 127.495 42.906 123.054 42.906C122.071 42.9479 121.091 42.7925 120.169 42.449C119.248 42.1055 118.404 41.5808 117.689 40.906C116.53 39.6944 115.735 38.1815 115.395 36.54L118.059 35.8C118.22 36.9743 118.737 38.0713 119.539 38.944C120.247 39.6096 121.132 40.0569 122.088 40.2322C123.044 40.4076 124.03 40.3036 124.928 39.9328C125.826 39.5619 126.599 38.9399 127.152 38.1412C127.706 37.3426 128.018 36.4013 128.05 35.43C128.071 34.8886 127.973 34.3491 127.762 33.8501C127.551 33.351 127.232 32.9047 126.829 32.543C125.939 31.8227 124.939 31.2489 123.868 30.843L121.648 29.807C120.438 29.3299 119.323 28.6407 118.355 27.772C117.791 27.267 117.347 26.6434 117.053 25.9461C116.759 25.2488 116.623 24.495 116.655 23.739C116.655 19.927 119.578 17.374 123.574 17.374C124.978 17.3197 126.363 17.708 127.534 18.484C128.549 19.1846 129.376 20.1255 129.939 21.223L127.754 22.666Z" fill="white"/>
<path d="M138.149 29.548V42.462H135.485V29.548H133.857V27.106H135.485V21.556H138.149V27.106H140.814V29.548H138.149Z" fill="white"/>
<path d="M155.281 27.106H157.945V42.462H155.281V40.316C154.67 41.13 153.876 41.7887 152.963 42.2387C152.05 42.6886 151.044 42.9173 150.026 42.906C146.141 42.906 142.552 40.168 142.552 34.766C142.552 29.474 146.104 26.736 150.026 26.736C151.042 26.71 152.05 26.9284 152.964 27.3726C153.879 27.8168 154.673 28.474 155.281 29.289V27.106ZM145.29 34.766C145.29 38.059 147.14 40.538 150.322 40.538C153.579 40.538 155.428 37.838 155.428 34.803C155.428 30.843 152.69 29.103 150.322 29.103C147.7 29.1 145.29 31.028 145.29 34.766Z" fill="white"/>
<path d="M165.9 29.548V42.462H163.236V29.548H161.608V27.106H163.236V21.556H165.9V27.106H168.565V29.548H165.9Z" fill="white"/>
<path d="M172.6 19.409C172.973 19.4088 173.339 19.5194 173.649 19.7267C173.96 19.934 174.202 20.2288 174.345 20.5738C174.488 20.9188 174.526 21.2984 174.453 21.6647C174.38 22.031 174.2 22.3675 173.936 22.6317C173.672 22.8958 173.336 23.0757 172.97 23.1486C172.603 23.2216 172.224 23.1842 171.879 23.0414C171.534 22.8985 171.239 22.6565 171.031 22.346C170.824 22.0355 170.713 21.6705 170.713 21.297C170.715 20.797 170.914 20.318 171.268 19.9644C171.621 19.6107 172.1 19.4111 172.6 19.409ZM173.933 27.109V42.462H171.268V27.106L173.933 27.109Z" fill="white"/>
<path d="M185.471 30.658C185.31 30.2137 185.02 29.8279 184.637 29.5507C184.254 29.2736 183.797 29.118 183.325 29.104C183.086 29.0828 182.846 29.1123 182.619 29.1906C182.392 29.269 182.185 29.3944 182.01 29.5586C181.835 29.7229 181.697 29.9222 181.605 30.1436C181.513 30.3649 181.469 30.6033 181.475 30.843C181.475 31.953 182.215 32.286 183.954 33.026C186.175 33.951 187.211 34.654 187.803 35.395C188.372 36.092 188.662 36.9754 188.617 37.874C188.617 41.093 186.285 42.906 183.325 42.906C182.125 42.9284 180.951 42.5571 179.982 41.8488C179.013 41.1405 178.303 40.1342 177.96 38.984L180.254 38.022C180.45 38.7104 180.854 39.3215 181.41 39.7718C181.966 40.2222 182.648 40.4897 183.362 40.538C183.691 40.5565 184.02 40.5066 184.329 40.3914C184.638 40.2762 184.919 40.0983 185.156 39.8688C185.392 39.6393 185.579 39.3633 185.703 39.0582C185.828 38.7531 185.888 38.4254 185.879 38.096C185.879 36.652 184.843 36.172 183.399 35.542C182.002 35.0744 180.726 34.3036 179.662 33.285C179.161 32.6434 178.912 31.8406 178.962 31.028C178.937 30.4416 179.036 29.8565 179.255 29.3118C179.474 28.7671 179.806 28.2752 180.229 27.869C180.653 27.4629 181.159 27.1517 181.712 26.9563C182.265 26.7609 182.854 26.6858 183.439 26.736C184.341 26.7138 185.228 26.9677 185.982 27.4636C186.736 27.9595 187.32 28.6739 187.657 29.511L185.471 30.658Z" fill="white"/>
<path d="M195.091 29.548V42.462H192.427V29.548H190.8V27.106H192.428V21.556H195.092V27.106H197.757V29.548H195.091Z" fill="white"/>
<path d="M201.788 19.409C202.161 19.409 202.526 19.5197 202.837 19.727C203.147 19.9343 203.389 20.229 203.532 20.5738C203.675 20.9186 203.713 21.2981 203.64 21.6642C203.567 22.0304 203.388 22.3668 203.124 22.631C202.86 22.8951 202.524 23.0752 202.158 23.1484C201.792 23.2215 201.413 23.1846 201.068 23.0421C200.723 22.8997 200.427 22.6582 200.22 22.3481C200.012 22.038 199.901 21.6733 199.9 21.3C199.902 20.7997 200.102 20.3206 200.455 19.9665C200.809 19.6125 201.288 19.4122 201.788 19.409ZM203.12 27.109V42.462H200.456V27.106L203.12 27.109Z" fill="white"/>
<path d="M220.362 31.4C219.782 30.6826 219.049 30.1037 218.217 29.7058C217.385 29.3079 216.474 29.1009 215.552 29.1C214.808 29.0848 214.069 29.2251 213.382 29.5119C212.696 29.7988 212.076 30.2258 211.564 30.7658C211.052 31.3057 210.659 31.9467 210.408 32.6476C210.158 33.3484 210.057 34.0938 210.112 34.836C210.063 35.5719 210.166 36.31 210.416 37.0039C210.666 37.6977 211.057 38.3323 211.565 38.8677C212.072 39.4032 212.684 39.8278 213.364 40.1149C214.043 40.402 214.775 40.5454 215.512 40.536C216.463 40.5204 217.4 40.2976 218.256 39.8831C219.113 39.4686 219.868 38.8724 220.471 38.136V41.318C219.055 42.3577 217.343 42.9154 215.587 42.909C214.511 42.9572 213.437 42.7839 212.43 42.3998C211.424 42.0157 210.508 41.4291 209.737 40.6762C208.967 39.9234 208.36 39.0204 207.953 38.0231C207.546 37.0259 207.348 35.9558 207.372 34.879C207.343 33.7958 207.536 32.7181 207.94 31.7124C208.343 30.7068 208.949 29.7945 209.718 29.0317C210.488 28.269 211.406 27.6721 212.415 27.2778C213.425 26.8835 214.504 26.7001 215.587 26.739C217.294 26.7192 218.964 27.237 220.36 28.219L220.362 31.4Z" fill="white"/>
<path d="M231.054 30.658C230.893 30.2137 230.603 29.8279 230.22 29.5507C229.837 29.2736 229.38 29.118 228.908 29.104C228.669 29.0828 228.429 29.1123 228.202 29.1906C227.975 29.269 227.768 29.3944 227.593 29.5586C227.418 29.7229 227.28 29.9222 227.188 30.1436C227.096 30.3649 227.052 30.6033 227.058 30.843C227.058 31.953 227.798 32.286 229.537 33.026C231.758 33.951 232.794 34.654 233.386 35.395C233.955 36.092 234.245 36.9754 234.2 37.874C234.2 41.093 231.868 42.906 228.908 42.906C227.708 42.9284 226.534 42.5571 225.565 41.8488C224.596 41.1405 223.886 40.1342 223.543 38.984L225.837 38.022C226.033 38.7104 226.437 39.3215 226.993 39.7718C227.549 40.2222 228.231 40.4897 228.945 40.538C229.274 40.5565 229.603 40.5066 229.912 40.3914C230.221 40.2762 230.502 40.0983 230.739 39.8688C230.975 39.6393 231.162 39.3633 231.286 39.0582C231.411 38.7531 231.471 38.4254 231.462 38.096C231.462 36.652 230.426 36.172 228.982 35.542C227.585 35.0744 226.309 34.3036 225.245 33.285C224.744 32.6434 224.495 31.8406 224.545 31.028C224.52 30.4416 224.619 29.8565 224.838 29.3118C225.057 28.7671 225.389 28.2752 225.812 27.869C226.236 27.4629 226.742 27.1517 227.295 26.9563C227.848 26.7609 228.437 26.6858 229.022 26.736C229.924 26.7138 230.811 26.9677 231.565 27.4636C232.319 27.9595 232.903 28.6739 233.24 29.511L231.054 30.658Z" fill="white"/>
<path d="M53.589 26.679L52.189 25.954L46.699 36.554C46.4145 36.2736 46.0756 36.0543 45.7033 35.9097C45.3309 35.765 44.9329 35.6981 44.5337 35.713C44.1345 35.7279 43.7425 35.8243 43.382 35.9963C43.0214 36.1682 42.6998 36.4122 42.437 36.713L37.245 29.77C37.211 29.718 37.164 29.68 37.128 29.631C37.2233 29.3451 37.2739 29.0463 37.278 28.745C37.2844 28.3144 37.1966 27.8876 37.0209 27.4945C36.8452 27.1014 36.5857 26.7514 36.2607 26.4689C35.9356 26.1865 35.5527 25.9785 35.1389 25.8594C34.7251 25.7404 34.2902 25.7131 33.8648 25.7796C33.4393 25.8461 33.0335 26.0047 32.6757 26.2444C32.3179 26.484 32.0168 26.7989 31.7934 27.1671C31.57 27.5352 31.4297 27.9477 31.3823 28.3757C31.3349 28.8037 31.3815 29.2369 31.519 29.645C31.489 29.687 31.449 29.718 31.419 29.762L27.772 36.049C27.2184 35.5578 26.4991 35.2949 25.7593 35.3135C25.0195 35.3321 24.3142 35.6307 23.786 36.149L18.956 28.1C19.0744 27.7825 19.1367 27.4468 19.14 27.108C19.1257 26.333 18.8079 25.5946 18.2548 25.0516C17.7017 24.5086 16.9576 24.2044 16.1825 24.2044C15.4074 24.2044 14.6633 24.5086 14.1102 25.0516C13.5571 25.5946 13.2393 26.333 13.225 27.108C13.225 27.117 13.225 27.125 13.225 27.134C13.125 27.221 13.031 27.289 12.935 27.385L4.306 36.195L5.433 37.295L13.759 28.795C13.9835 29.1205 14.2715 29.3973 14.6057 29.6086C14.94 29.8198 15.3135 29.9613 15.7039 30.0243C16.0943 30.0874 16.4934 30.0708 16.8771 29.9755C17.2609 29.8803 17.6214 29.7083 17.937 29.47L22.933 37.8C22.8669 38.2028 22.885 38.615 22.9862 39.0105C23.0874 39.406 23.2696 39.7762 23.5211 40.0978C23.7726 40.4193 24.0881 40.6852 24.4476 40.8787C24.8071 41.0721 25.2028 41.189 25.6097 41.2218C26.0166 41.2546 26.4259 41.2026 26.8118 41.0693C27.1976 40.9359 27.5516 40.724 27.8514 40.4469C28.1512 40.1698 28.3903 39.8335 28.5535 39.4594C28.7168 39.0852 28.8007 38.6812 28.8 38.273C28.7979 38.0368 28.767 37.8017 28.708 37.573L32.494 31.048C33.0186 31.4763 33.6767 31.707 34.3539 31.7001C35.031 31.6931 35.6843 31.4489 36.2 31.01L41.708 38.375C41.6928 38.4744 41.6828 38.5745 41.678 38.675C41.6923 39.45 42.0101 40.1884 42.5632 40.7314C43.1163 41.2744 43.8604 41.5786 44.6355 41.5786C45.4106 41.5786 46.1547 41.2744 46.7078 40.7314C47.2609 40.1884 47.5787 39.45 47.593 38.675C47.5881 38.5587 47.5761 38.4428 47.557 38.328L53.589 26.679ZM16.176 29.405C15.7211 29.405 15.2764 29.2701 14.8982 29.0174C14.52 28.7647 14.2252 28.4054 14.0511 27.9852C13.877 27.5649 13.8314 27.1024 13.9202 26.6563C14.0089 26.2101 14.228 25.8003 14.5497 25.4787C14.8713 25.157 15.2811 24.9379 15.7273 24.8492C16.1734 24.7604 16.6359 24.806 17.0562 24.9801C17.4764 25.1542 17.8357 25.449 18.0884 25.8272C18.3411 26.2054 18.476 26.6501 18.476 27.105C18.476 27.407 18.4165 27.7061 18.3009 27.9852C18.1853 28.2642 18.0159 28.5178 17.8023 28.7313C17.5888 28.9449 17.3352 29.1143 17.0562 29.2299C16.7771 29.3455 16.478 29.405 16.176 29.405ZM25.843 40.588C25.3881 40.588 24.9434 40.4531 24.5652 40.2004C24.187 39.9477 23.8922 39.5884 23.7181 39.1682C23.544 38.7479 23.4984 38.2854 23.5872 37.8393C23.6759 37.3931 23.895 36.9833 24.2167 36.6617C24.5383 36.34 24.9481 36.1209 25.3943 36.0322C25.8404 35.9434 26.3029 35.989 26.7232 36.1631C27.1434 36.3372 27.5027 36.632 27.7554 37.0102C28.0081 37.3884 28.143 37.8331 28.143 38.288C28.143 38.898 27.9007 39.483 27.4693 39.9143C27.038 40.3457 26.453 40.588 25.843 40.588ZM34.325 31.006C33.8701 31.006 33.4254 30.8711 33.0472 30.6184C32.669 30.3657 32.3742 30.0064 32.2001 29.5862C32.026 29.1659 31.9804 28.7034 32.0692 28.2573C32.1579 27.8111 32.377 27.4013 32.6987 27.0797C33.0203 26.758 33.4301 26.5389 33.8763 26.4502C34.3224 26.3614 34.7849 26.407 35.2052 26.5811C35.6254 26.7552 35.9847 27.05 36.2374 27.4282C36.4901 27.8064 36.625 28.2511 36.625 28.706C36.625 29.316 36.3827 29.901 35.9513 30.3323C35.52 30.7637 34.935 31.006 34.325 31.006ZM44.637 40.971C44.1821 40.971 43.7374 40.8361 43.3592 40.5834C42.981 40.3307 42.6862 39.9714 42.5121 39.5512C42.338 39.1309 42.2924 38.6685 42.3812 38.2223C42.4699 37.7761 42.689 37.3663 43.0107 37.0447C43.3323 36.723 43.7421 36.5039 44.1883 36.4152C44.6344 36.3264 45.0969 36.372 45.5172 36.5461C45.9374 36.7202 46.2967 37.015 46.5494 37.3932C46.8021 37.7714 46.937 38.2161 46.937 38.671C46.937 39.281 46.6947 39.866 46.2633 40.2973C45.832 40.7287 45.247 40.971 44.637 40.971Z" fill="white"/>
</svg>
